<svg xmlns="http://www.w3.org/2000/svg" viewBox="0 0 32 32" id="list"><path fill="#263238" d="M11.3 6.3 8 9.6 6.7 8.3c-.4-.4-1-.4-1.4 0s-.4 1 0 1.4l2 2c.2.2.4.3.7.3s.5-.1.7-.3l4-4c.4-.4.4-1 0-1.4s-1-.4-1.4 0zm0 7L8 16.6l-1.3-1.3c-.4-.4-1-.4-1.4 0s-.4 1 0 1.4l2 2c.2.2.4.3.7.3s.5-.1.7-.3l4-4c.4-.4.4-1 0-1.4s-1-.4-1.4 0zm0 7L8 23.6l-1.3-1.3c-.4-.4-1-.4-1.4 0s-.4 1 0 1.4l2 2c.2.2.4.3.7.3s.5-.1.7-.3l4-4c.4-.4.4-1 0-1.4s-1-.4-1.4 0zM17 11h8c.6 0 1-.4 1-1s-.4-1-1-1h-8c-.6 0-1 .4-1 1s.4 1 1 1zm8 5h-8c-.6 0-1 .4-1 1s.4 1 1 1h8c.6 0 1-.4 1-1s-.4-1-1-1zm0 7h-8c-.6 0-1 .4-1 1s.4 1 1 1h8c.6 0 1-.4 1-1s-.4-1-1-1z"></path></svg>